<svg xmlns="http://www.w3.org/2000/svg" version="1.0" width="600" height="289" viewBox="0 0 600 289" preserveAspectRatio="xMidYMid meet"><default:g xmlns:default="http://www.w3.org/2000/svg" transform="translate(0.000000,289.000000) scale(0.100000,-0.100000)" fill="#000000" stroke="none"><default:path d="M4485 2536 c-38 -18 -97 -45 -130 -61 -33 -15 -69 -36 -80 -45 -58 -52 -147 -73 -390 -95 -38 -3 -106 -12 -150 -20 -156 -27 -168 -26 -231 17 -31 21 -63 38 -71 38 -19 0 -100 44 -149 81 l-42 31 -38 -17 c-135 -59 -191 -93 -248 -151 -34 -34 -100 -84 -149 -113 -80 -47 -92 -51 -120 -42 -18 6 -66 20 -107 31 -41 12 -103 37 -137 56 -34 19 -69 34 -77 34 -9 0 -33 7 -54 16 l-37 16 53 13 c29 7 55 15 59 19 10 10 -33 7 -80 -6 -41 -11 -46 -9 -109 25 -36 21 -75 37 -88 37 -13 0 -47 -13 -77 -30 -64 -36 -96 -38 -148 -5 -22 13 -52 25 -67 25 -42 0 -110 -34 -149 -76 -53 -57 -124 -104 -156 -104 -15 0 -43 -11 -62 -24 -20 -13 -76 -34 -126 -47 -49 -12 -94 -26 -100 -31 -15 -13 7 -10 175 29 14 4 41 16 60 28 19 12 49 25 67 28 33 6 143 84 166 117 17 24 93 60 127 59 14 0 43 -11 65 -24 54 -33 94 -32 155 6 64 39 83 36 187 -29 44 -27 94 -53 113 -57 19 -4 66 -23 104 -43 37 -19 107 -45 154 -58 46 -13 87 -25 89 -28 5 -4 6 -3 -182 -98 -145 -74 -309 -138 -352 -138 -15 0 -62 -9 -103 -20 -82 -22 -347 -70 -384 -70 -19 0 -25 7 -30 38 -3 20 -6 49 -6 65 0 15 -4 27 -8 27 -20 0 -100 -115 -89 -127 3 -3 20 16 36 43 32 50 37 44 25 -28 -6 -34 -9 -37 -48 -43 -96 -15 -108 -18 -96 -25 7 -4 28 -4 49 1 20 5 47 9 60 9 21 0 23 -3 17 -37 -10 -54 -56 -192 -67 -198 -5 -4 -14 -16 -19 -28 -6 -12 7 -3 28 20 25 27 44 60 51 88 8 34 16 45 31 45 10 0 22 5 25 10 3 6 -5 10 -19 10 -23 0 -25 2 -16 26 6 14 10 37 10 50 0 42 23 22 35 -32 7 -27 14 -56 16 -64 3 -10 -3 -15 -18 -14 -28 1 -29 -7 -3 -24 16 -10 20 -10 21 0 0 7 9 -7 20 -32 11 -24 31 -59 45 -77 31 -41 31 -61 -3 -65 -23 -3 -29 -13 -55 -86 -17 -46 -27 -86 -23 -90 3 -4 10 0 15 7 9 15 60 25 60 12 0 -4 -5 -12 -12 -19 -7 -7 -8 -12 -4 -12 5 0 14 7 20 15 10 14 13 14 34 0 18 -13 20 -20 12 -36 -6 -10 -18 -19 -26 -19 -11 0 -14 -5 -10 -17 4 -9 1 -20 -6 -25 -10 -6 -9 -8 4 -8 9 0 20 5 23 10 3 6 11 10 16 10 6 0 7 -4 4 -10 -3 -5 -1 -10 4 -10 6 0 11 7 11 15 0 8 -4 15 -10 15 -5 0 -10 4 -10 9 0 17 43 -2 47 -21 7 -26 30 -22 35 7 3 13 1 22 -3 19 -5 -3 -9 7 -9 22 0 29 -15 23 -22 -8 -2 -13 -7 -15 -18 -8 -12 7 -12 12 -2 22 15 15 16 32 0 22 -7 -5 -8 -3 -3 5 5 9 11 9 17 3 6 -6 17 -8 25 -5 17 7 42 -25 43 -54 0 -20 4 -22 31 -16 l30 6 -3 -215 c-2 -178 -1 -215 11 -213 11 1 13 55 13 306 0 298 3 329 32 329 7 0 7 -3 1 -8 -14 -10 -17 -32 -5 -32 5 0 12 11 16 25 3 14 14 25 23 25 9 0 25 8 36 16 19 16 19 16 -5 8 -30 -9 -90 -12 -107 -6 -16 5 -17 32 -2 32 5 0 7 -4 4 -10 -3 -5 -1 -10 4 -10 6 0 11 5 11 10 0 6 9 10 21 10 11 0 18 -4 15 -9 -4 -5 10 -5 32 0 46 10 265 28 352 29 71 1 297 -17 319 -25 7 -3 20 3 27 12 11 14 14 14 12 3 -2 -10 7 -16 26 -18 20 -3 26 0 20 9 -5 9 -2 10 10 6 10 -4 20 -7 22 -7 3 0 2 -5 -2 -11 -5 -8 1 -10 20 -7 16 3 24 2 18 -4 -4 -4 -37 -10 -73 -13 -44 -2 -64 -8 -64 -17 0 -7 -5 -17 -11 -23 -7 -5 -15 -21 -18 -35 -5 -23 -4 -23 6 2 14 33 80 65 88 43 4 -11 8 -11 23 0 18 13 18 13 0 18 -15 4 -15 5 3 6 12 0 25 -7 29 -16 3 -10 5 -79 4 -153 l-2 -135 34 3 c25 1 30 -1 19 -7 -12 -9 -12 -11 3 -17 12 -4 23 0 33 12 9 11 13 14 10 8 -3 -6 6 -16 21 -23 25 -11 25 -12 7 -27 -18 -14 -18 -15 3 -5 30 15 63 14 64 -1 0 -7 1 -30 3 -50 2 -25 -1 -35 -8 -30 -11 7 -17 8 -51 12 -33 4 -47 1 -40 -9 3 -5 0 -13 -5 -16 -8 -5 -5 -14 7 -28 18 -22 18 -22 -3 -4 -20 17 -54 15 -54 -4 0 -5 -5 -9 -11 -9 -7 0 -10 23 -7 65 1 36 0 65 -4 65 -4 0 -10 11 -14 25 -6 26 -41 42 -69 31 -8 -3 -15 -1 -15 3 0 5 6 12 13 14 6 3 -4 6 -24 6 -19 1 -39 -3 -45 -9 -12 -12 -73 -20 -79 -10 -8 13 -128 6 -132 -7 -4 -10 13 -13 59 -14 35 -1 71 -1 81 0 9 1 17 -2 17 -7 0 -5 7 -9 15 -9 8 0 15 3 15 7 0 6 141 2 148 -5 2 -2 6 -69 8 -149 l5 -146 -23 0 c-23 0 -23 1 -23 121 0 119 -1 122 -26 141 -18 14 -33 17 -52 13 l-27 -7 0 -134 0 -134 -25 0 -25 0 -1 108 c-1 59 -4 118 -8 132 -10 35 -52 48 -85 26 -26 -16 -26 -18 -26 -149 l0 -132 162 0 c119 0 163 -4 166 -13 3 -9 -129 -12 -610 -13 -337 -1 -624 -5 -638 -9 -14 -4 580 -8 1320 -8 740 0 1334 3 1320 8 -14 4 -324 8 -690 9 -378 1 -669 6 -674 11 -14 14 -11 137 4 155 7 9 22 15 33 13 19 -3 20 -9 18 -70 -2 -56 0 -68 13 -68 13 0 16 13 16 71 0 71 0 71 25 65 35 -9 31 5 -8 28 -31 19 -31 20 -8 24 13 2 34 -2 47 -8 21 -12 22 -18 21 -98 -1 -61 2 -87 11 -89 9 -4 12 27 12 131 0 84 -4 136 -10 136 -5 0 -10 9 -10 20 0 15 -7 20 -24 20 -14 0 -28 5 -32 12 -5 7 -3 8 6 3 7 -4 16 -2 21 6 6 9 9 10 9 2 0 -8 14 -10 46 -6 33 4 45 2 40 -6 -5 -7 1 -11 14 -11 12 0 18 4 15 10 -4 6 -3 10 2 9 22 -4 33 3 33 19 0 14 2 15 10 2 5 -8 10 -10 10 -4 0 6 -6 17 -14 23 -12 10 -17 8 -26 -8 -12 -23 -35 -29 -27 -7 3 8 -1 17 -9 20 -8 3 -14 15 -14 26 0 12 -4 19 -9 16 -5 -4 -7 3 -4 14 3 11 8 18 12 15 4 -2 7 6 6 18 -2 12 -8 21 -14 19 -9 -2 -9 3 -1 18 6 11 13 20 16 20 3 0 2 -5 -2 -12 -4 -7 -3 -8 5 -4 9 6 9 11 0 22 -10 12 -10 15 2 12 8 -2 17 -7 21 -12 8 -11 108 -14 108 -3 0 18 15 5 17 -15 1 -13 4 -34 7 -48 2 -14 5 -34 6 -45 2 -15 5 -12 11 10 7 25 8 22 5 -18 -2 -31 1 -53 10 -62 12 -11 10 -16 -11 -33 -29 -23 -32 -32 -10 -32 13 0 15 -23 15 -145 0 -109 3 -145 13 -145 15 0 11 253 -4 282 -6 12 -6 18 1 18 5 0 10 -6 10 -14 0 -8 7 -16 15 -20 8 -3 15 -2 15 3 0 10 157 8 167 -3 4 -4 -1 -14 -11 -22 -17 -12 -18 -14 -3 -14 9 0 17 -4 17 -10 0 -5 18 -10 41 -10 33 0 40 3 37 18 -2 10 -14 18 -30 20 -15 2 -32 10 -38 18 -10 12 -7 14 17 14 16 0 33 -3 37 -7 3 -4 17 -8 29 -10 20 -3 21 -3 5 13 -13 14 -40 18 -135 20 -143 3 -133 2 -133 14 0 6 9 10 19 10 11 0 21 5 23 11 2 5 18 11 35 11 30 1 39 15 19 29 -4 4 -3 15 3 25 10 18 10 17 11 -5 0 -18 3 -21 13 -12 8 6 18 7 22 3 5 -4 5 -1 1 6 -4 7 -12 10 -17 7 -15 -10 -10 15 6 31 13 14 15 14 15 -1 0 -9 4 -14 9 -11 5 4 7 -4 3 -16 -3 -14 -2 -19 6 -14 7 4 12 35 12 75 0 65 1 69 25 73 17 4 25 1 25 -8 0 -8 -5 -14 -11 -14 -11 0 -9 -69 3 -120 2 -10 -4 -14 -20 -13 -13 2 -21 -1 -17 -6 7 -12 -30 -24 -53 -17 -13 4 -18 1 -18 -14 0 -14 7 -20 21 -20 17 0 18 2 5 11 -12 9 -12 10 3 5 10 -3 21 -6 23 -6 3 0 2 -6 -2 -12 -6 -10 -5 -10 7 -1 12 10 18 10 27 1 9 -9 12 -9 12 0 0 6 7 9 15 6 8 -4 13 -9 11 -13 -2 -3 5 -11 17 -17 16 -7 29 -6 47 4 l25 14 -31 -6 c-24 -4 -36 0 -50 16 -18 21 -18 21 -1 15 10 -4 59 -7 108 -7 58 0 88 -4 84 -10 -4 -6 7 -10 27 -9 18 1 26 3 17 6 -21 5 -33 43 -14 43 19 0 28 -17 13 -23 -7 -3 4 -6 25 -6 20 -1 37 -5 37 -11 0 -5 5 -10 10 -10 6 0 10 16 10 35 l0 35 -66 0 c-63 0 -65 -1 -59 -22 6 -21 5 -22 -8 -6 -16 20 -32 25 -21 6 4 -7 3 -8 -4 -4 -7 4 -12 2 -12 -3 0 -6 -11 -11 -25 -11 -14 0 -25 5 -25 11 0 8 -5 8 -15 -1 -10 -9 -15 -9 -15 -1 0 12 11 15 53 12 27 -1 36 12 17 24 -5 3 -10 24 -10 46 0 45 -17 57 -59 43 -18 -7 -30 -22 -41 -52 -19 -55 -31 -54 -23 4 4 34 2 48 -8 55 -11 7 -12 9 0 9 7 0 11 6 7 15 -3 8 0 15 7 15 8 0 6 4 -3 10 -13 8 -13 10 2 10 20 0 36 -22 20 -28 -22 -7 -12 -22 11 -18 12 3 27 5 32 6 6 0 1 7 -9 15 -22 17 -20 22 9 25 37 4 42 0 50 -32 4 -18 9 -27 12 -20 12 30 23 7 23 -49 0 -38 4 -58 10 -54 6 4 7 12 3 18 -5 9 -3 9 8 0 8 -6 44 -10 87 -10 l72 2 0 -30 c0 -43 14 -53 61 -45 38 7 56 0 45 -18 -3 -5 -52 -7 -108 -5 -59 3 -114 0 -128 -6 -19 -8 13 -10 123 -8 l147 2 0 -142 c0 -120 2 -143 15 -143 12 0 14 22 13 140 -1 77 0 141 3 142 2 2 46 2 96 0 l92 -3 -2 -160 c-1 -122 1 -159 11 -159 9 0 12 40 13 163 3 301 1 330 -22 350 -12 9 -27 17 -34 17 -21 0 -47 -38 -52 -77 -5 -35 -19 -56 -33 -48 -3 2 -4 37 -2 79 l4 77 81 -7 c45 -3 87 -10 93 -15 13 -11 16 -59 3 -59 -5 0 -8 3 -8 8 4 21 -2 40 -14 45 -11 4 -11 -2 -3 -29 6 -19 14 -34 18 -34 5 0 8 -11 8 -23 0 -26 41 -52 57 -36 5 5 9 -1 11 -16 1 -16 -3 -25 -13 -25 -8 0 -15 5 -15 10 0 6 -3 10 -7 10 -5 0 -9 -14 -9 -32 -1 -25 1 -29 10 -17 13 16 56 13 56 -4 0 -7 -5 -19 -11 -27 -8 -12 -9 -10 -4 8 4 13 2 22 -4 22 -6 0 -11 -7 -11 -15 0 -8 -5 -15 -11 -15 -5 0 -7 -4 -4 -10 3 -5 18 -10 31 -10 25 0 25 1 20 52 -20 171 -20 178 3 209 12 16 19 33 16 38 -3 5 13 8 36 7 46 -4 73 -29 83 -79 7 -34 -2 -77 -16 -77 -6 0 -8 -19 -6 -45 2 -25 0 -45 -4 -45 -5 0 -8 6 -8 13 0 8 -4 7 -11 -3 -8 -11 -9 -6 -5 22 5 41 -2 52 -24 38 -10 -6 -11 -12 -3 -22 13 -15 12 -68 -1 -68 -5 0 -7 -3 -3 -6 3 -3 12 -2 19 2 7 5 19 9 26 10 17 3 42 24 42 36 0 5 -6 6 -12 2 -8 -5 -8 -1 1 10 13 15 13 19 1 26 -8 5 -12 12 -8 15 3 3 13 -1 21 -10 9 -8 24 -15 34 -16 13 -1 11 -3 -7 -9 -23 -7 -23 -8 9 -9 31 -1 33 1 27 24 -4 14 -2 25 3 25 5 0 12 -12 14 -27 3 -22 4 -19 6 11 1 33 3 37 16 26 12 -10 13 -16 3 -27 -10 -13 -9 -15 7 -12 11 3 19 8 18 12 -2 4 -3 18 -3 32 0 18 -5 25 -20 25 -11 0 -23 -6 -26 -13 -2 -7 -17 -13 -32 -12 -15 0 -30 -4 -34 -9 -4 -6 -10 -8 -13 -4 -4 3 0 12 7 19 10 9 12 26 8 60 -7 56 -33 98 -57 95 -10 -2 -12 -1 -5 1 17 6 15 54 -4 81 -33 47 -102 11 -91 -47 5 -25 1 -33 -21 -50 -24 -17 -28 -28 -32 -90 -7 -97 -25 -91 -26 7 0 62 -5 85 -21 108 -11 16 -29 54 -41 84 -20 57 -52 241 -52 307 0 68 -12 25 -14 -54 -4 -107 -32 -235 -69 -313 -27 -57 -31 -74 -29 -137 l3 -72 -28 3 c-27 3 -28 6 -25 47 2 24 12 53 21 64 17 20 18 55 1 55 -14 0 -32 -39 -24 -53 4 -6 4 -9 -1 -5 -16 15 -35 -15 -35 -54 0 -52 -18 -68 -76 -68 -26 0 -44 3 -41 7 4 3 26 6 49 5 33 0 38 2 23 8 -11 5 -14 9 -7 9 7 1 12 15 12 36 0 48 -36 73 -80 55 -27 -11 -30 -17 -30 -56 l0 -44 -57 4 c-32 2 -61 5 -65 5 -5 1 -8 47 -8 104 0 113 -10 160 -40 192 -21 23 -89 206 -90 242 0 12 -4 25 -10 28 -6 3 -10 -4 -10 -18 0 -34 -34 -129 -70 -194 -27 -52 -32 -81 -9 -68 5 4 9 1 9 -4 0 -6 -5 -11 -10 -11 -22 0 -51 -93 -49 -154 2 -50 0 -60 -15 -62 -10 -1 -26 6 -37 17 -24 24 -56 24 -97 -1 -18 -11 -37 -18 -41 -15 -5 2 -11 23 -15 45 -3 22 -12 40 -19 40 -8 0 -8 3 -2 8 6 4 10 13 9 20 -1 6 -2 18 -3 25 0 6 -15 21 -31 32 -20 14 -30 28 -30 46 0 14 -13 59 -30 99 -16 40 -30 83 -30 96 0 45 -15 24 -39 -51 -22 -73 -34 -92 -148 -239 -26 -33 -32 -50 -31 -86 0 -25 2 -34 5 -20 2 14 6 35 8 47 7 28 81 101 108 105 11 2 22 9 25 16 3 11 0 12 -17 3 -28 -15 -27 0 2 25 31 28 69 29 85 4 10 -17 10 -21 -3 -26 -8 -4 -21 -4 -29 -1 -8 3 -20 -2 -28 -10 -11 -14 -11 -16 4 -10 10 3 19 3 22 -1 3 -4 -11 -8 -31 -9 -40 -1 -56 -17 -48 -50 5 -20 2 -21 -30 -16 -20 3 -35 1 -35 -4 0 -11 16 -13 72 -13 30 1 36 -2 32 -15 -3 -8 -10 -15 -16 -15 -5 0 -6 5 -3 10 3 6 -4 10 -16 10 -18 0 -19 -3 -9 -15 18 -21 -1 -102 -21 -89 -6 3 -5 11 2 21 10 12 10 16 -1 23 -7 4 -10 15 -7 24 7 16 -30 49 -45 40 -4 -3 -8 -29 -8 -59 0 -57 -7 -65 -60 -65 -16 0 -31 -6 -33 -12 -3 -7 -6 -4 -6 8 -1 17 5 20 35 19 19 0 39 4 44 10 6 7 -4 9 -32 7 l-40 -4 7 143 c4 79 11 154 16 167 11 29 -20 62 -60 62 -40 0 -171 25 -324 62 l-129 31 -146 -40 c-81 -23 -180 -46 -221 -52 -40 -6 -78 -14 -83 -17 -6 -4 -8 -19 -4 -34 4 -20 1 -30 -11 -34 -14 -6 -14 -9 3 -27 15 -17 20 -40 22 -120 2 -55 1 -106 -2 -114 -8 -22 -30 -9 -43 25 -9 24 -17 30 -42 30 -26 0 -31 4 -31 23 0 13 -11 46 -25 73 -14 27 -25 59 -25 72 0 13 -18 53 -40 89 -22 37 -40 70 -40 75 0 4 11 8 25 8 34 0 32 18 -2 22 -29 3 -27 -2 -57 123 -4 17 0 20 32 21 74 1 240 28 380 63 42 10 97 21 122 25 148 18 691 305 796 420 38 41 72 64 146 100 53 25 99 46 103 46 4 0 5 -44 3 -97 -6 -112 -27 -177 -87 -269 -36 -57 -41 -60 -112 -82 -41 -13 -98 -27 -127 -32 -30 -6 -58 -12 -63 -15 -5 -4 -9 -3 -9 2 0 4 17 18 38 31 46 29 140 112 127 112 -12 0 -189 -138 -193 -151 -6 -14 62 -11 140 7 107 25 173 59 213 110 43 57 88 175 88 231 0 24 4 43 9 43 4 0 8 -5 8 -12 0 -7 21 -62 48 -123 36 -84 59 -122 98 -162 27 -29 59 -53 70 -53 19 1 19 1 -1 16 -11 8 -36 30 -56 49 -67 63 -212 421 -158 390 8 -4 23 -16 34 -26 11 -10 56 -35 100 -55 44 -20 96 -49 116 -65 31 -25 205 -129 214 -129 2 0 58 -32 125 -70 160 -93 255 -140 371 -184 117 -43 245 -79 262 -73 8 3 7 6 -3 9 -194 59 -359 124 -476 188 -55 30 -171 93 -257 140 -86 47 -157 88 -157 91 0 3 33 9 73 12 39 3 92 10 117 16 25 5 119 17 210 26 171 17 220 31 283 79 49 37 278 145 295 138 11 -4 13 -16 9 -51 -11 -87 -15 -137 -8 -106 5 25 8 27 14 12 4 -10 7 -30 7 -44 0 -15 8 -50 17 -80 13 -42 29 -65 79 -111 104 -96 219 -182 245 -182 23 0 23 1 -5 15 -39 21 -157 115 -229 184 -81 78 -90 103 -102 284 l-6 88 28 -14 c15 -8 46 -29 68 -47 22 -18 79 -52 127 -76 65 -33 93 -53 115 -84 22 -32 50 -52 133 -94 58 -29 136 -70 173 -90 38 -20 74 -36 82 -36 16 0 78 -26 235 -101 119 -56 210 -83 210 -62 0 5 -24 15 -52 23 -29 7 -80 26 -113 42 -87 44 -258 118 -270 118 -5 0 -86 39 -180 86 -128 64 -177 94 -200 122 -39 48 -45 53 -140 103 -44 23 -96 54 -115 69 -45 35 -94 60 -117 60 -10 0 -49 -15 -88 -34z m-2865 -717 c0 -16 -4 -28 -9 -25 -8 5 -3 56 5 56 2 0 4 -14 4 -31z m2031 -222 c9 -29 20 -60 24 -69 4 -10 3 -18 -2 -18 -5 0 -29 -18 -52 -41 -24 -22 -45 -38 -47 -36 -2 2 -6 19 -8 38 -3 23 5 51 25 91 16 32 29 67 29 79 0 32 12 16 31 -44z m-1148 19 c94 -23 209 -45 315 -61 28 -5 42 -12 42 -22 0 -14 -12 -15 -78 -10 -44 2 -87 10 -98 15 -10 6 -57 18 -104 27 -47 9 -94 19 -105 21 -16 4 -14 1 5 -10 14 -9 37 -15 53 -16 15 0 27 -4 27 -10 0 -5 9 -10 20 -10 12 0 53 -7 93 -15 40 -8 94 -16 120 -19 27 -2 51 -7 54 -10 10 -10 -57 -7 -187 9 -69 9 -144 16 -167 17 -23 0 -40 4 -38 8 3 4 -2 11 -11 14 -8 3 -12 2 -9 -4 3 -6 1 -10 -5 -10 -6 0 -8 -4 -5 -10 3 -5 1 -10 -5 -10 -7 0 -10 7 -7 15 4 8 1 17 -5 21 -6 4 -8 3 -5 -3 4 -6 0 -16 -9 -23 -12 -11 -17 -9 -30 9 -15 21 -17 21 -29 4 -7 -10 -17 -15 -21 -10 -4 4 1 13 11 21 11 8 15 18 10 26 -5 8 -4 11 3 6 6 -3 13 -2 17 4 9 15 25 12 25 -5 0 -8 -4 -15 -10 -15 -15 0 -12 -17 5 -24 8 -3 14 -2 14 2 -4 22 2 46 9 36 7 -11 43 -22 97 -29 28 -4 28 -4 -3 4 -18 5 -41 16 -52 26 -11 10 -39 20 -63 22 -36 4 -48 1 -63 -15 -23 -25 -70 -38 -87 -25 -14 12 -77 -3 -77 -18 0 -9 103 -4 138 6 18 6 15 -12 -4 -19 -9 -3 -32 -6 -52 -6 -20 0 -98 -9 -172 -20 -147 -22 -166 -23 -134 -10 12 5 65 14 118 21 53 7 92 17 88 21 -4 4 -37 2 -72 -4 -95 -16 -124 -16 -128 3 -2 13 13 18 75 27 43 6 132 27 198 45 147 42 170 43 298 13z m680 -163 c-4 -10 -2 -14 4 -10 5 3 10 1 11 -6 3 -31 10 -52 18 -52 20 0 34 -17 34 -41 0 -13 -4 -24 -10 -24 -5 0 -10 7 -10 16 0 16 -28 50 -35 42 -3 -2 -6 -14 -8 -27 -3 -21 -22 -40 -40 -41 -4 0 -3 9 3 20 6 11 8 26 4 33 -4 6 -4 9 1 5 9 -9 40 20 31 30 -4 3 -10 1 -14 -5 -5 -8 -12 -9 -22 -2 -13 8 -13 10 0 19 8 5 21 10 28 10 10 0 10 5 -2 21 -8 12 -12 27 -10 33 3 7 -8 13 -28 14 -17 2 -33 4 -35 5 -1 2 5 23 14 48 l17 46 28 -59 c15 -32 24 -66 21 -75z m1084 11 c-1 -1 -13 -5 -26 -9 -21 -6 -23 -5 -17 11 4 11 10 42 14 69 l6 50 12 -60 c7 -33 12 -61 11 -61z m-1907 46 c0 -5 -10 -10 -22 -10 -19 0 -20 2 -8 10 19 13 30 13 30 0z m-53 -6 c-3 -3 -12 -4 -19 -1 -8 3 -5 6 6 6 11 1 17 -2 13 -5z m1388 -24 c-3 -5 -13 -10 -21 -10 -8 0 -14 5 -14 10 0 6 9 10 21 10 11 0 17 -4 14 -10z m33 -35 c7 -14 12 -55 12 -90 0 -56 -3 -65 -17 -64 -10 0 -13 3 -7 5 6 3 9 16 6 29 -4 23 -13 30 -34 26 -13 -2 -9 9 11 38 21 29 22 68 1 63 -6 -1 -9 2 -5 8 10 17 21 12 33 -15z m-68 -65 c-26 -52 -34 -60 -59 -60 -28 0 -28 1 -23 47 3 26 10 52 16 58 22 21 61 33 78 23 17 -8 16 -13 -12 -68z m632 12 c11 -26 20 -58 19 -72 0 -18 2 -21 8 -11 5 7 14 10 20 7 6 -4 9 -11 6 -16 -5 -9 -20 -8 -48 5 -10 4 -44 5 -77 3 -33 -2 -60 -1 -60 4 0 4 7 8 16 8 8 0 13 4 9 9 -3 5 1 25 9 43 8 18 17 40 19 48 3 9 17 16 31 18 23 2 30 -5 48 -46z m-2528 -15 c25 -69 27 -85 15 -92 -16 -10 -29 14 -29 53 0 20 -6 35 -15 38 -16 7 -45 -12 -45 -28 0 -6 6 -6 14 1 11 9 15 8 20 -5 8 -21 8 -21 -13 -27 -36 -9 -43 6 -25 54 29 72 54 74 78 6z m1794 16 c0 -15 -8 -33 -17 -40 -10 -8 -12 -12 -3 -13 6 0 12 -7 12 -16 0 -24 -23 -11 -27 16 -4 26 14 80 27 80 4 0 8 -12 8 -27z m956 11 c13 -33 6 -44 -24 -44 -32 0 -36 9 -20 41 13 23 36 25 44 3z m-1374 -39 c0 -18 -12 -19 -28 -3 -17 17 -28 2 -12 -17 11 -13 8 -15 -21 -15 -32 1 -33 1 -15 15 19 15 19 15 -3 15 -12 0 -19 4 -16 10 3 6 26 10 51 10 32 0 44 -4 44 -15z m570 -35 c0 -5 -4 -10 -10 -10 -5 0 -10 5 -10 10 0 6 5 10 10 10 6 0 10 -4 10 -10z m-726 -61 c-10 -4 -13 -8 -6 -8 7 -1 10 -5 7 -11 -3 -5 -1 -10 4 -10 17 0 13 -18 -6 -29 -16 -8 -18 -4 -18 33 -1 38 2 42 19 38 20 -5 20 -5 0 -13z m89 -62 c-4 -24 0 -37 16 -51 23 -21 27 -36 10 -36 -5 0 -7 5 -3 12 5 8 2 9 -12 4 -10 -5 -37 -8 -59 -8 -22 -1 -46 -5 -53 -11 -8 -6 -7 0 3 19 9 17 11 30 5 32 -16 6 -12 22 5 22 9 0 15 -9 15 -23 0 -20 5 -24 35 -24 27 0 34 4 30 14 -3 8 -5 20 -6 26 0 7 -4 2 -10 -11 -5 -13 -13 -20 -19 -17 -17 11 -11 35 11 43 11 5 20 11 20 15 -3 25 0 37 8 32 5 -3 7 -20 4 -38z m357 -8 c0 -15 -5 -31 -11 -34 -6 -4 -8 -13 -5 -20 2 -7 -2 -16 -10 -19 -8 -3 -14 -2 -14 2 0 4 -9 8 -20 8 -13 0 -20 -7 -20 -18 0 -10 -5 -18 -12 -18 -6 0 -9 3 -5 6 7 7 -15 33 -24 28 -4 -2 -9 3 -12 10 -4 11 2 14 26 13 18 -1 35 -6 39 -12 4 -5 10 -6 15 -2 4 5 1 12 -7 17 -8 6 -10 10 -4 10 5 0 16 -6 23 -12 11 -11 13 -5 8 34 -2 26 -2 50 1 53 11 11 32 -19 32 -46z m544 35 c21 -21 20 -41 -3 -54 -45 -24 -66 2 -41 51 13 23 24 24 44 3z m291 -35 c0 -27 -4 -35 -22 -37 -20 -3 -22 1 -20 30 4 58 42 65 42 7z m-930 21 c-3 -5 -11 -10 -16 -10 -6 0 -7 5 -4 10 3 6 11 10 16 10 6 0 7 -4 4 -10z m357 -35 c6 -29 3 -32 -36 -39 -16 -3 -36 -12 -46 -21 -13 -12 -20 -13 -25 -5 -4 7 2 14 14 17 15 4 21 13 21 32 0 14 5 33 10 41 7 11 9 7 7 -15 -2 -25 2 -30 23 -32 14 -1 18 0 8 3 -21 6 -23 15 -5 33 10 11 10 13 0 7 -8 -4 -13 -1 -13 9 0 26 37 0 42 -30z m-316 24 c12 -19 -28 -47 -56 -39 -14 5 -18 8 -10 9 8 1 21 10 28 21 14 22 27 26 38 9z m84 -10 c0 -5 -4 -9 -10 -9 -5 0 -10 7 -10 16 0 8 5 12 10 9 6 -3 10 -10 10 -16z m-508 -36 c-6 -2 -10 -9 -6 -14 3 -5 -20 -9 -53 -8 -41 0 -52 3 -38 9 11 4 30 6 43 3 12 -3 22 0 22 6 0 6 10 11 23 10 12 0 16 -3 9 -6z m1338 -13 c0 -11 -4 -20 -9 -20 -5 0 -7 9 -4 20 3 11 7 20 9 20 2 0 4 -9 4 -20z m-231 -7 c1 24 21 22 21 -3 0 -18 7 -20 60 -20 33 0 60 -4 60 -10 0 -5 5 -10 10 -10 6 0 10 11 10 25 0 19 5 25 20 25 12 0 20 -6 19 -12 -1 -7 2 -22 6 -32 8 -19 9 -19 17 0 8 18 8 18 5 -1 -2 -17 -11 -20 -65 -23 -40 -2 -69 2 -79 9 -27 23 -52 18 -58 -12 l-6 -28 -29 29 c-25 26 -27 32 -17 54 10 22 13 23 19 8 6 -16 7 -16 7 1z m148 -5 c-3 -8 -6 -5 -6 6 -1 11 2 17 5 13 3 -3 4 -12 1 -19z m423 18 c0 -3 -4 -8 -10 -11 -5 -3 -10 -1 -10 4 0 6 5 11 10 11 6 0 10 -2 10 -4z m-500 -16 c8 -5 11 -10 5 -10 -5 0 -17 5 -25 10 -8 5 -10 10 -5 10 6 0 17 -5 25 -10z m-131 -18 c8 -16 5 -18 -27 -20 -32 -1 -34 0 -14 8 12 5 22 14 22 20 0 15 8 12 19 -8z m-1252 2 c-3 -3 -12 -4 -19 -1 -8 3 -5 6 6 6 11 1 17 -2 13 -5z m818 -4 c3 -5 -3 -10 -14 -10 -12 0 -21 5 -21 10 0 6 6 10 14 10 8 0 18 -4 21 -10z m320 0 c4 -6 -5 -10 -19 -10 -14 0 -26 5 -26 10 0 6 9 10 19 10 11 0 23 -4 26 -10z m-1078 -16 c-3 -3 -12 -4 -19 -1 -8 3 -5 6 6 6 11 1 17 -2 13 -5z m517 -20 c23 -23 19 -40 -4 -19 -11 10 -20 22 -20 27 0 12 7 10 24 -8z m813 0 c-3 -3 -12 -4 -19 -1 -8 3 -5 6 6 6 11 1 17 -2 13 -5z m-1533 -52 c3 -5 6 -59 7 -121 l1 -114 -37 -3 -37 -3 4 112 c2 62 7 118 11 125 9 13 43 16 51 4z m154 -4 c8 -8 12 -50 12 -125 l0 -113 -30 0 -30 0 0 113 c0 104 7 137 30 137 3 0 11 -5 18 -12z"/><default:path d="M3960 1200 c-9 -6 -10 -10 -3 -10 6 0 15 5 18 10 8 12 4 12 -15 0z"/><default:path d="M4060 1100 c0 -11 4 -20 8 -20 4 0 8 9 9 20 1 11 -2 20 -8 20 -5 0 -9 -9 -9 -20z"/><default:path d="M1223 2463 c9 -2 23 -2 30 0 6 3 -1 5 -18 5 -16 0 -22 -2 -12 -5z"/><default:path d="M5418 2442 c-1 -5 -23 -16 -48 -26 l-45 -16 50 6 c72 8 85 8 137 0 72 -12 81 0 10 14 -34 7 -65 17 -68 21 -7 11 -31 12 -36 1z"/><default:path d="M5180 2390 c0 -5 14 -10 31 -10 17 0 28 4 24 10 -3 6 -17 10 -31 10 -13 0 -24 -4 -24 -10z"/><default:path d="M1060 2278 c0 -80 -6 -137 -20 -193 -26 -102 -87 -267 -102 -276 -9 -6 -12 -43 -10 -131 2 -68 5 -130 8 -138 2 -10 -6 -20 -25 -27 -28 -10 -29 -11 -26 -82 l3 -71 -59 0 -59 0 0 60 c0 44 -9 84 -35 152 -19 51 -33 93 -31 95 2 2 29 -3 62 -12 67 -17 74 -18 74 -7 0 5 -33 16 -74 26 -73 17 -74 18 -90 61 -9 23 -21 66 -25 94 -9 59 -21 78 -21 34 0 -16 -4 -43 -9 -59 -5 -16 -14 -48 -20 -72 -7 -24 -16 -40 -22 -36 -13 7 -109 -15 -109 -26 0 -4 17 -4 38 1 20 5 47 9 59 9 l21 0 -19 -50 c-10 -28 -19 -57 -19 -66 0 -31 17 -4 35 56 18 60 19 61 53 58 33 -3 36 -6 72 -91 l39 -89 -50 4 c-27 1 -49 0 -49 -4 0 -5 12 -8 28 -8 67 0 72 -6 72 -81 l0 -69 64 0 c77 0 81 -5 70 -110 -4 -45 -3 -70 4 -70 15 0 22 54 23 199 1 123 2 134 20 138 17 5 19 15 19 129 l0 124 35 0 35 0 0 -145 c0 -90 -4 -145 -10 -145 -5 0 -10 18 -10 41 0 22 -4 38 -9 34 -5 -3 -7 -20 -4 -39 5 -32 4 -34 -33 -41 -56 -10 -20 -27 40 -19 l46 7 0 153 0 154 49 0 c27 0 63 -3 80 -6 l31 -6 0 -109 c0 -61 4 -110 10 -114 15 -9 12 -92 -2 -98 -10 -4 -10 -6 0 -6 6 -1 12 -7 12 -14 0 -10 -17 -13 -67 -11 -96 4 -238 -7 -221 -17 7 -5 75 -9 151 -9 l137 0 0 -115 c0 -70 4 -115 10 -115 9 0 15 131 10 232 -1 34 0 37 26 35 35 -3 41 -20 15 -46 -27 -27 -26 -35 3 -27 30 7 47 -13 49 -56 2 -34 2 -34 -45 -21 -30 9 -20 -11 12 -25 30 -14 30 -14 46 -117 4 -27 8 -31 37 -32 17 0 22 1 11 4 -16 3 -23 14 -28 41 -10 63 -7 102 8 102 23 0 35 -23 38 -75 4 -61 16 -75 62 -75 35 0 36 -1 36 -36 0 -31 2 -35 15 -24 8 7 15 22 15 35 0 17 6 22 29 22 17 0 29 -3 29 -6 -2 -12 14 -41 23 -41 5 0 9 11 9 25 0 22 3 24 31 18 27 -5 31 -3 27 13 -3 17 -12 19 -78 17 -41 -2 -92 -6 -114 -9 -27 -4 -36 -3 -32 5 4 6 0 11 -8 11 -22 0 -20 27 2 34 9 3 115 4 235 3 196 -3 245 1 219 17 -5 3 -113 6 -240 7 l-232 2 -2 26 c0 14 0 35 0 46 2 15 0 17 -7 6 -7 -11 -15 -11 -39 -3 -17 6 -34 7 -38 4 -4 -4 -4 -2 -1 4 4 6 30 11 59 10 l53 -1 15 -42 c9 -28 20 -43 31 -43 15 0 16 5 9 30 -10 35 -41 90 -51 90 -4 0 -4 14 1 30 8 27 6 30 -15 30 -44 0 -55 -9 -48 -42 4 -22 3 -29 -5 -24 -7 4 -12 2 -12 -3 0 -6 -7 -11 -15 -11 -8 0 -15 7 -15 16 0 8 -4 12 -10 9 -5 -3 -7 0 -4 9 3 8 -2 28 -10 45 -9 16 -16 41 -16 54 0 23 -4 25 -39 23 l-39 -2 -6 105 c-4 59 -8 128 -10 154 -2 26 0 50 5 52 11 7 4 56 -9 64 -19 11 -70 134 -103 246 -24 86 -32 136 -36 228 -3 64 -9 117 -14 117 -5 0 -9 -51 -9 -112z m84 -372 c14 -38 31 -75 36 -81 7 -8 -19 -11 -100 -11 -94 1 -109 3 -104 16 29 69 84 235 90 275 l7 49 22 -89 c12 -50 34 -121 49 -159z m44 -121 c39 -9 26 -28 -15 -21 -21 3 -80 6 -130 6 -51 0 -93 4 -93 9 0 5 10 11 23 13 28 5 185 0 215 -7z m-535 -42 l14 -41 -29 -4 c-26 -4 -29 -2 -23 16 4 12 9 34 12 49 7 34 8 33 26 -20z m797 -421 c0 -5 -7 -17 -15 -28 -14 -19 -14 -19 -15 2 0 11 3 24 7 27 9 10 23 9 23 -1z"/><default:path d="M722 2363 c-16 -29 -62 -53 -102 -53 -16 0 -30 -5 -30 -11 0 -7 14 -9 43 -5 117 18 125 18 190 -4 36 -12 73 -20 83 -18 10 2 -22 17 -71 34 -75 25 -90 34 -95 54 l-6 25 -12 -22z"/><default:path d="M1478 2346 c-26 -19 -22 -27 8 -16 17 7 38 7 63 0 39 -11 108 -14 98 -4 -4 4 -152 37 -152 34 0 0 -8 -7 -17 -14z"/><default:path d="M4320 2350 c-21 -6 -22 -8 -8 -15 10 -4 30 -3 45 2 24 8 25 10 8 14 -11 3 -31 2 -45 -1z"/><default:path d="M4750 2356 c0 -2 19 -16 41 -31 31 -20 44 -24 49 -15 4 7 13 9 19 6 6 -4 11 -3 11 2 0 15 -28 23 -33 9 -2 -7 -16 -4 -41 11 -37 22 -46 25 -46 18z"/><default:path d="M3390 2345 c0 -21 118 -191 126 -182 3 2 -21 42 -52 88 -62 93 -74 108 -74 94z"/><default:path d="M4707 2344 c-3 -3 4 -15 15 -26 11 -11 22 -17 26 -14 3 4 -4 15 -15 26 -12 10 -23 16 -26 14z"/><default:path d="M4562 2310 c0 -14 2 -19 5 -12 2 6 2 18 0 25 -3 6 -5 1 -5 -13z"/><default:path d="M3023 2255 c-29 -28 -90 -73 -135 -100 -46 -27 -96 -59 -113 -71 -45 -33 -264 -149 -317 -169 -26 -9 -49 -23 -52 -30 -10 -26 288 116 362 172 20 16 55 40 77 54 160 101 242 166 234 186 -2 4 -28 -15 -56 -42z"/><default:path d="M3125 2249 c-16 -28 -47 -66 -67 -85 -21 -18 -33 -36 -28 -39 10 -6 89 85 119 138 31 56 10 44 -24 -14z"/><default:path d="M4725 2250 c-3 -5 -1 -10 4 -10 6 0 11 5 11 10 0 6 -2 10 -4 10 -3 0 -8 -4 -11 -10z"/><default:path d="M3510 2244 c0 -14 161 -163 228 -211 98 -72 92 -49 -8 27 -45 34 -109 90 -143 126 -57 58 -77 74 -77 58z"/><default:path d="M1990 2231 c0 -5 30 -24 68 -44 66 -34 172 -59 172 -39 0 5 -23 12 -51 15 -28 4 -70 18 -94 32 -55 32 -95 47 -95 36z"/><default:path d="M4125 2207 c-55 -5 -139 -10 -187 -11 -57 -1 -84 -4 -77 -11 20 -20 381 3 404 26 10 10 3 10 -140 -4z"/><default:path d="M392 2202 c-9 -6 9 -11 55 -14 65 -5 163 -37 245 -79 39 -20 104 -26 93 -9 -3 6 -17 10 -30 10 -14 0 -39 9 -57 20 -18 11 -42 20 -52 20 -11 0 -43 11 -72 25 -57 27 -160 42 -182 27z"/><default:path d="M4350 2175 c-16 -19 0 -19 26 0 16 12 16 14 3 15 -9 0 -22 -7 -29 -15z"/><default:path d="M4950 2166 c94 -90 278 -199 356 -210 l39 -6 -35 14 c-90 35 -202 98 -275 154 -44 34 -84 62 -90 62 -5 0 -3 -6 5 -14z"/><default:path d="M1690 2144 c25 -10 70 -34 101 -55 56 -38 179 -80 229 -78 14 0 -11 10 -56 23 -50 14 -109 39 -156 69 -48 30 -90 48 -119 52 l-44 5 45 -16z"/><default:path d="M4455 2129 c8 -12 -105 -109 -164 -139 -67 -35 -53 -39 21 -7 52 23 168 122 168 143 0 6 -7 11 -15 11 -8 0 -12 -4 -10 -8z"/><default:path d="M3520 2112 c12 -24 36 -39 47 -28 3 3 -3 9 -13 13 -10 4 -25 14 -32 22 -11 14 -11 12 -2 -7z"/><default:path d="M4272 2120 c-29 -4 -56 -11 -60 -15 -11 -12 130 3 142 15 11 11 -2 11 -82 0z"/><default:path d="M3436 2078 c3 -5 10 -6 15 -3 13 9 11 12 -6 12 -8 0 -12 -4 -9 -9z"/><default:path d="M3500 2049 c0 -8 21 -29 48 -46 38 -26 73 -38 172 -58 69 -14 146 -29 171 -35 25 -5 56 -6 69 -3 23 6 -128 42 -268 63 -67 11 -132 39 -169 73 -17 15 -23 17 -23 6z"/><default:path d="M4455 2031 c-3 -5 -2 -12 3 -15 5 -3 9 1 9 9 0 17 -3 19 -12 6z"/><default:path d="M4925 2020 c3 -5 10 -10 16 -10 5 0 9 5 9 10 0 6 -7 10 -16 10 -8 0 -12 -4 -9 -10z"/><default:path d="M5030 1989 c0 -5 1 -9 3 -9 1 0 17 -4 35 -10 28 -7 32 -7 23 4 -13 16 -61 27 -61 15z"/><default:path d="M4497 1971 c34 -15 97 -21 114 -10 10 6 4 9 -21 9 -19 0 -53 3 -75 5 -32 4 -36 4 -18 -4z"/><default:path d="M2694 1945 c-10 -8 -14 -14 -9 -15 15 0 40 18 34 24 -3 3 -14 -1 -25 -9z"/><default:path d="M4005 1950 c-3 -6 1 -7 9 -4 18 7 21 14 7 14 -6 0 -13 -4 -16 -10z"/><default:path d="M2948 1879 c-10 -5 -47 -12 -83 -16 -36 -3 -65 -10 -65 -14 0 -17 119 -1 185 25 39 15 39 15 10 15 -16 0 -38 -4 -47 -10z"/><default:path d="M4957 1864 c-4 -4 -7 -21 -7 -37 0 -32 -49 -185 -80 -249 -11 -23 -20 -59 -20 -79 0 -31 -4 -38 -22 -41 -20 -3 -23 -9 -24 -53 -1 -27 -2 -63 -3 -78 -1 -17 -8 -30 -18 -34 -39 -13 -53 -45 -53 -123 l0 -76 -62 -2 c-75 -3 -98 -9 -98 -26 0 -6 -10 -12 -22 -13 -11 -1 -24 -7 -28 -14 -6 -8 -13 -8 -29 0 -19 11 -21 17 -15 62 6 41 4 49 -10 49 -13 0 -16 -12 -16 -65 l0 -65 49 0 c31 0 51 5 54 13 2 6 3 3 1 -8 -2 -11 -4 -40 -4 -65 0 -28 -3 -40 -9 -32 -7 12 -97 15 -128 4 -34 -12 -6 -22 59 -22 39 0 68 -3 65 -7 -4 -3 1 -12 11 -19 16 -12 16 -13 0 -14 -9 0 -21 7 -26 16 -6 10 -19 14 -42 12 l-34 -3 -4 -64 c-3 -44 -1 -61 7 -57 6 4 11 22 11 41 0 18 7 41 16 49 18 19 17 19 49 4 19 -9 25 -19 25 -45 0 -22 5 -33 14 -33 12 0 14 24 13 128 -2 115 0 127 16 126 9 -1 17 4 17 12 0 8 10 14 26 14 20 0 25 -4 20 -16 -3 -9 -6 -19 -6 -22 0 -4 -5 0 -10 8 -6 10 -10 11 -10 3 0 -7 -7 -13 -15 -13 -8 0 -15 -4 -15 -9 0 -5 27 -10 60 -10 53 0 60 2 60 20 0 23 -22 25 -40 4 -17 -21 -24 -12 -10 14 6 13 21 21 35 21 l24 0 3 -145 c2 -88 7 -145 13 -145 6 0 11 78 13 210 l2 210 25 0 c28 0 32 -12 10 -30 -10 -8 -12 -16 -6 -19 10 -7 12 -39 12 -236 0 -66 4 -124 9 -129 13 -13 18 7 24 112 4 82 3 92 -12 92 -16 1 -15 1 1 11 9 5 17 19 17 30 0 11 -5 17 -10 14 -6 -4 -5 5 2 19 14 31 24 33 31 6 3 -11 1 -18 -4 -14 -5 3 -9 1 -9 -5 0 -5 5 -13 11 -17 7 -4 7 -9 2 -13 -13 -8 -1 -237 12 -233 11 2 19 515 9 589 -5 41 -6 42 -35 36 -22 -4 -29 -2 -29 11 0 14 17 16 130 16 72 0 130 -3 130 -6 0 -15 -22 -44 -34 -44 -22 0 -27 -72 -25 -350 1 -184 5 -260 13 -257 8 3 11 76 11 236 0 200 2 231 15 229 12 -3 15 -28 17 -143 1 -77 3 -144 4 -150 4 -23 6 -65 8 -142 0 -48 5 -83 11 -83 6 0 10 43 10 110 l0 110 45 0 45 0 0 -80 c0 -47 4 -80 10 -80 6 0 10 33 10 80 l0 80 30 0 30 0 0 -85 c0 -52 4 -85 10 -85 7 0 10 35 8 97 l-3 97 -92 -3 -93 -3 0 26 c0 27 1 27 90 30 20 1 24 5 22 24 -4 25 23 41 40 24 8 -8 7 -13 -5 -18 -26 -10 -20 -24 11 -24 23 0 28 4 30 29 2 31 -15 41 -70 41 -23 0 -28 -4 -28 -25 0 -14 -4 -25 -10 -25 -5 0 -12 11 -16 25 -4 18 -13 25 -29 25 -13 0 -26 -6 -28 -12 -3 -7 -6 -1 -6 15 l-1 27 115 0 115 0 0 -181 c0 -140 3 -180 13 -176 8 2 12 27 12 73 l0 69 43 0 42 0 0 -87 c0 -52 4 -88 10 -88 6 0 10 120 10 340 l0 340 23 -4 c12 -3 68 -7 125 -10 57 -3 107 -8 112 -11 5 -3 11 -1 14 4 8 13 -26 18 -179 31 -86 7 -150 7 -189 0 -99 -16 -90 8 12 35 49 12 67 13 78 4 9 -7 14 -8 14 -1 0 6 -4 12 -10 14 -11 4 -4 15 31 46 l26 23 33 -31 c17 -16 40 -30 50 -30 34 0 121 -33 108 -41 -7 -4 -9 -11 -5 -15 4 -5 17 2 28 13 21 20 21 21 3 31 -11 5 -44 15 -74 22 -67 15 -106 34 -113 55 -9 22 -41 19 -63 -6 -24 -26 -78 -54 -123 -63 -69 -13 -81 -29 -81 -104 0 -45 -5 -75 -15 -88 -9 -12 -14 -42 -15 -81 0 -56 -2 -63 -20 -63 -18 0 -20 7 -20 56 0 53 -1 55 -22 48 -13 -4 -26 -11 -29 -16 -3 -5 -16 -5 -30 1 -13 5 -21 10 -17 10 4 1 0 13 -7 29 -9 16 -11 28 -5 30 6 2 10 8 10 14 0 6 -7 7 -16 4 -9 -4 -13 -2 -8 5 4 7 8 41 10 77 2 48 0 62 -9 53 -18 -18 -28 -13 -21 13 4 17 -6 50 -29 103 -41 91 -67 177 -68 225 -1 40 -12 72 -22 62z m56 -270 c57 -144 58 -134 -11 -132 -51 1 -59 4 -55 19 6 23 33 33 33 13 0 -8 5 -12 10 -9 6 3 10 14 10 24 0 15 -5 17 -32 12 -26 -5 -34 -12 -36 -34 -3 -22 -8 -27 -33 -27 -27 0 -29 3 -29 35 0 20 11 57 24 83 13 26 32 75 41 107 25 91 28 94 36 44 4 -25 23 -86 42 -135z m437 -218 c0 -44 0 -45 -37 -48 -38 -3 -56 -24 -29 -34 8 -3 23 1 31 10 24 24 35 20 35 -14 0 -24 -4 -29 -21 -27 -30 3 -36 -21 -7 -25 21 -3 23 -9 26 -68 1 -40 -1 -60 -6 -52 -6 8 -22 12 -42 10 l-32 -3 -3 142 -2 142 31 4 c17 2 37 5 44 5 8 1 12 -13 12 -42z m-596 8 c9 -24 7 -162 -3 -168 -13 -9 -21 32 -20 112 1 69 10 91 23 56z m492 0 c-3 -9 -6 -65 -6 -125 l0 -109 -27 0 c-27 0 -28 2 -30 59 -2 42 2 63 12 71 9 8 15 30 15 60 0 45 7 57 34 59 4 1 5 -6 2 -15z m-278 -61 c-10 -13 -10 -17 0 -20 17 -6 15 -33 -3 -33 -8 0 -15 3 -16 8 0 4 -2 16 -4 27 -3 11 3 26 12 33 10 7 12 12 5 12 -7 0 -12 5 -12 11 0 5 5 7 10 4 6 -3 11 2 11 12 1 10 4 5 6 -10 3 -16 -2 -35 -9 -44z m32 -70 c0 -21 -3 -24 -9 -14 -5 8 -7 20 -4 28 8 21 13 15 13 -14z m-290 -12 c0 -25 -3 -28 -25 -23 -14 2 -25 8 -25 12 0 22 14 40 31 40 14 0 19 -7 19 -29z m342 -31 c10 0 18 5 18 10 0 6 6 10 14 10 9 0 13 -12 12 -38 -1 -38 -1 -39 -42 -41 -40 -1 -42 0 -47 31 -5 39 1 54 16 39 6 -6 19 -11 29 -11z m-292 -55 c-4 -29 -3 -46 4 -48 6 -2 -1 -6 -16 -9 -24 -4 -26 -3 -18 13 13 24 13 59 -1 59 -8 0 -8 5 1 15 25 30 37 18 30 -30z m-393 -57 c-3 -8 -6 -5 -6 6 -1 11 2 17 5 13 3 -3 4 -12 1 -19z m981 -87 c3 -83 3 -84 -20 -77 -13 3 -32 6 -43 6 -18 0 -20 6 -17 64 2 35 -1 73 -6 83 -10 17 -7 18 36 13 l47 -5 3 -84z m-288 50 c0 -6 -4 -13 -10 -16 -5 -3 -10 -1 -10 4 0 6 -5 11 -11 11 -5 0 -7 -5 -3 -11 4 -7 1 -10 -6 -7 -28 9 -22 28 9 28 17 0 31 -4 31 -9z"/><default:path d="M5385 1381 c-3 -6 1 -11 9 -11 9 0 16 -4 16 -10 0 -5 4 -10 9 -10 5 0 8 8 7 18 -3 19 -31 28 -41 13z"/><default:path d="M5392 1208 c-7 -7 -12 -18 -12 -25 0 -15 46 -18 55 -3 4 6 -1 7 -12 3 -15 -6 -16 -4 -6 9 20 24 -3 38 -25 16z"/><default:path d="M5128 1173 c7 -3 16 -2 19 1 4 3 -2 6 -13 5 -11 0 -14 -3 -6 -6z"/><default:path d="M4625 1843 c-49 -12 -31 -21 36 -18 90 5 89 4 64 15 -22 9 -68 11 -100 3z"/><default:path d="M3245 1833 c-48 -7 -51 -21 -3 -16 24 3 47 9 53 14 9 9 5 10 -50 2z"/><default:path d="M3345 1830 c-4 -6 5 -10 20 -10 15 0 24 4 20 10 -3 6 -12 10 -20 10 -8 0 -17 -4 -20 -10z"/><default:path d="M3671 1829 c17 -11 56 -12 62 -1 3 4 -13 8 -36 9 -27 1 -36 -2 -26 -8z"/><default:path d="M3232 1789 c-67 -26 -63 -33 7 -12 52 15 110 14 201 -3 47 -9 28 9 -26 24 -60 17 -121 14 -182 -9z"/><default:path d="M3790 1789 c0 -5 5 -7 10 -4 6 3 10 8 10 11 0 2 -4 4 -10 4 -5 0 -10 -5 -10 -11z"/><default:path d="M3970 1792 c0 -15 80 -26 93 -13 8 8 3 11 -18 11 -17 0 -40 3 -52 6 -13 4 -23 2 -23 -4z"/><default:path d="M4335 1775 l-30 -13 33 -1 c22 -1 32 4 32 14 0 8 -1 15 -2 15 -2 -1 -16 -7 -33 -15z"/><default:path d="M5045 1781 c-27 -8 -25 -9 20 -10 105 -3 196 -21 239 -46 23 -14 52 -25 64 -25 11 0 42 -9 68 -20 26 -11 52 -19 58 -17 15 6 -93 57 -120 57 -12 0 -48 13 -80 30 -46 23 -76 30 -139 34 -44 3 -93 1 -110 -3z"/><default:path d="M4505 1770 c-4 -6 11 -10 37 -10 31 0 39 3 28 10 -20 13 -57 13 -65 0z"/><default:path d="M5438 1763 c7 -3 16 -2 19 1 4 3 -2 6 -13 5 -11 0 -14 -3 -6 -6z"/><default:path d="M5495 1760 c3 -5 8 -10 11 -10 2 0 4 5 4 10 0 6 -5 10 -11 10 -5 0 -7 -4 -4 -10z"/><default:path d="M1310 1730 c20 -13 40 -13 40 0 0 6 -12 10 -27 10 -22 0 -25 -2 -13 -10z"/><default:path d="M3675 1730 c-8 -13 45 -13 65 0 11 7 6 10 -22 10 -20 0 -40 -4 -43 -10z"/><default:path d="M980 1655 c0 -43 4 -75 10 -75 6 0 10 32 10 75 0 43 -4 75 -10 75 -6 0 -10 -32 -10 -75z"/><default:path d="M1107 1723 c-9 -8 -9 -266 -1 -287 4 -9 18 -16 34 -16 33 0 35 11 39 179 3 120 -1 131 -45 131 -11 0 -24 -3 -27 -7z m48 -150 c-1 -111 -5 -138 -16 -138 -11 0 -15 25 -17 123 -2 116 7 170 27 157 5 -2 8 -67 6 -142z"/><default:path d="M1469 1640 c-13 -10 -20 -19 -16 -20 11 0 67 29 67 35 0 12 -30 3 -51 -15z"/><default:path d="M1378 1604 c-16 -29 -15 -330 1 -320 5 3 12 26 16 51 l6 46 46 -3 c45 -3 46 -4 58 -45 7 -24 9 -43 4 -43 -5 0 -9 -4 -9 -10 0 -5 7 -10 15 -10 8 0 15 -5 15 -11 0 -6 7 -3 16 5 8 9 20 14 25 11 11 -8 49 13 49 27 0 7 -5 6 -15 -2 -13 -11 -15 -4 -16 56 -1 97 -9 118 -42 122 -24 3 -30 -2 -45 -37 -16 -38 -20 -41 -57 -41 l-40 0 -3 86 c-3 83 -14 137 -24 118z m186 -190 c11 -87 8 -114 -14 -114 -17 0 -20 7 -20 44 0 25 -4 47 -10 51 -5 3 -7 12 -5 20 3 8 7 22 10 30 10 33 32 15 39 -31z"/><default:path d="M5097 1586 c-5 -12 -3 -15 5 -10 8 5 9 1 4 -12 -5 -14 -4 -16 4 -7 8 7 9 17 3 28 -9 16 -10 16 -16 1z"/><default:path d="M608 1503 c6 -2 18 -2 25 0 6 3 1 5 -13 5 -14 0 -19 -2 -12 -5z"/><default:path d="M5520 1490 c0 -6 11 -10 25 -10 14 0 25 4 25 8 0 4 -11 9 -25 10 -14 1 -25 -3 -25 -8z"/><default:path d="M2181 1458 c-112 -9 -134 -25 -91 -68 11 -11 20 -29 20 -40 0 -11 4 -20 10 -20 5 0 7 13 4 30 -5 23 -3 30 9 30 8 0 18 7 21 16 5 12 2 15 -11 9 -10 -4 -22 -9 -28 -11 -14 -5 -41 13 -32 23 4 4 26 7 47 6 22 -1 40 2 40 8 0 5 5 9 11 9 5 0 8 -4 5 -9 -3 -5 41 -8 98 -7 57 1 102 -2 99 -6 -2 -5 -10 -8 -17 -8 -7 0 -23 -11 -36 -25 -22 -24 -24 -34 -25 -127 0 -74 3 -102 13 -106 7 -2 12 0 11 5 -1 4 -1 51 0 104 1 81 4 98 18 103 27 11 34 -7 40 -91 6 -80 6 -80 -21 -87 -14 -3 -26 -13 -26 -22 0 -11 6 -13 23 -8 31 10 80 6 89 -9 5 -9 10 -9 20 1 11 11 9 16 -6 28 -11 8 -28 14 -38 14 -16 0 -18 9 -18 69 0 38 -5 82 -10 97 -12 31 -6 44 13 25 6 -6 14 -48 17 -92 6 -103 25 -100 25 4 -1 57 -5 81 -15 87 -8 6 -11 10 -6 10 5 0 3 6 -3 14 -8 9 -8 16 -2 20 5 4 15 -9 22 -28 7 -19 16 -33 21 -30 5 3 6 10 3 15 -4 5 -1 9 4 9 6 0 11 -7 11 -15 0 -25 25 -17 43 15 21 34 25 35 72 16 31 -13 35 -20 36 -53 1 -27 3 -31 6 -13 3 14 19 38 35 53 25 23 28 31 17 38 -23 14 -52 11 -46 -6 9 -23 -11 -28 -23 -5 -6 11 -14 19 -18 17 -4 -3 -16 -1 -27 3 -15 5 -26 0 -46 -23 -20 -22 -31 -28 -47 -23 -12 4 -22 11 -22 16 0 6 10 6 25 0 16 -6 25 -6 25 0 0 6 -4 10 -10 10 -5 0 -10 5 -10 10 0 6 9 10 20 10 11 0 20 3 20 8 0 9 -238 10 -359 0z m236 -25 c-4 -3 -2 -12 3 -18 7 -9 3 -12 -17 -12 -16 0 -37 -3 -48 -8 -11 -4 -4 4 15 18 32 23 63 37 47 20z"/><default:path d="M5580 1460 c0 -5 5 -10 10 -10 6 0 10 5 10 10 0 6 -4 10 -10 10 -5 0 -10 -4 -10 -10z"/><default:path d="M2758 1443 c7 -3 16 -2 19 1 4 3 -2 6 -13 5 -11 0 -14 -3 -6 -6z"/><default:path d="M2963 1435 c0 -8 4 -12 9 -9 5 3 6 10 3 15 -9 13 -12 11 -12 -6z"/><default:path d="M667 1409 c7 -7 15 -10 18 -7 3 3 -2 9 -12 12 -14 6 -15 5 -6 -5z"/><default:path d="M2164 1399 c-16 -18 -19 -38 -19 -132 l0 -112 30 -1 c64 -2 65 0 65 102 0 101 -9 137 -38 153 -15 8 -23 6 -38 -10z m39 -26 c3 -5 8 -48 11 -97 6 -81 5 -88 -10 -82 -10 4 -21 1 -26 -6 -4 -7 -8 30 -8 83 0 53 3 99 7 102 9 9 21 9 26 0z"/><default:path d="M2225 1410 c3 -5 8 -10 11 -10 2 0 4 5 4 10 0 6 -5 10 -11 10 -5 0 -7 -4 -4 -10z"/><default:path d="M4919 1417 c-1 -2 -2 -9 -9 -62 -4 -37 0 -45 24 -45 14 0 28 -4 31 -10 3 -5 13 -10 21 -10 16 0 20 85 5 109 -7 11 -66 25 -72 18z m51 -43 c15 -38 13 -44 -15 -44 -26 0 -32 19 -19 54 9 24 23 19 34 -10z"/><default:path d="M2014 1383 c-14 -21 -20 -49 -21 -108 -1 -44 -3 -91 -4 -105 0 -14 -1 -28 0 -31 1 -3 24 -1 52 5 l52 12 -2 94 c-3 142 -35 196 -77 133z m53 -90 c3 -77 2 -86 -10 -70 -19 22 -27 22 -27 -3 0 -11 3 -19 8 -19 20 3 32 -2 32 -16 0 -8 -4 -16 -10 -16 -38 -6 -39 -3 -40 120 0 59 3 76 17 86 10 8 20 11 22 9 2 -2 6 -43 8 -91z"/><default:path d="M2031 1304 c0 -11 3 -14 6 -6 3 7 2 16 -1 19 -3 4 -6 -2 -5 -13z"/><default:path d="M2561 1391 c-23 -15 -37 -77 -33 -152 l3 -76 50 -1 49 -1 0 83 c0 46 -5 97 -11 114 -10 30 -37 45 -58 33z m42 -124 c1 -43 -1 -81 -5 -83 -5 -3 -8 0 -8 6 0 7 -8 9 -20 5 -19 -6 -20 -2 -20 72 0 48 5 84 12 91 23 23 37 -10 41 -91z"/><default:path d="M2579 1305 c-3 -5 -7 -30 -8 -55 -1 -31 2 -41 10 -33 5 5 9 30 7 54 -2 24 -6 40 -9 34z"/><default:path d="M2821 1384 c0 -11 3 -14 6 -6 3 7 2 16 -1 19 -3 4 -6 -2 -5 -13z"/><default:path d="M2740 1382 c-32 -10 -40 -35 -40 -129 l0 -94 47 3 48 3 3 72 c5 105 -16 159 -58 145z m28 -101 c2 -53 -1 -77 -10 -82 -30 -19 -38 -9 -38 45 0 80 10 118 29 114 13 -3 17 -19 19 -77z"/><default:path d="M4570 1380 c0 -5 5 -10 11 -10 5 0 7 5 4 10 -3 6 -8 10 -11 10 -2 0 -4 -4 -4 -10z"/><default:path d="M5490 1370 c0 -5 9 -10 20 -10 13 0 20 -7 20 -20 0 -25 17 -26 25 -1 3 10 14 21 25 24 16 4 18 0 13 -29 -4 -22 -2 -34 6 -34 6 0 11 8 11 18 0 10 6 27 14 38 14 19 15 19 21 -1 4 -11 10 -29 15 -40 8 -19 8 -19 18 5 7 20 6 26 -7 32 -11 5 -8 7 12 7 25 1 33 -11 28 -41 0 -5 3 -8 8 -8 15 0 20 27 8 39 -8 8 -7 11 6 11 9 0 17 4 17 9 0 5 -58 10 -130 10 -84 1 -130 -2 -130 -9z"/><default:path d="M2805 1351 c-3 -5 -1 -12 5 -16 5 -3 10 1 10 9 0 18 -6 21 -15 7z"/><default:path d="M4617 1347 c-3 -8 1 -14 8 -14 7 0 11 6 8 14 -3 7 -6 13 -8 13 -2 0 -5 -6 -8 -13z"/><default:path d="M2350 1335 c0 -8 4 -15 10 -15 5 0 7 7 4 15 -4 8 -8 15 -10 15 -2 0 -4 -7 -4 -15z"/><default:path d="M960 1270 c0 -91 17 -91 22 0 2 51 0 70 -9 70 -9 0 -13 -21 -13 -70z"/><default:path d="M1010 1258 c0 -92 18 -105 22 -17 2 45 8 65 20 73 29 18 42 -8 45 -84 3 -101 18 -86 18 18 l0 87 -52 0 -53 1 0 -78z"/><default:path d="M1165 1331 c-11 -19 -1 -161 12 -161 10 0 13 23 13 85 0 77 -8 102 -25 76z"/><default:path d="M640 1319 c0 -5 5 -7 10 -4 6 3 10 8 10 11 0 2 -4 4 -10 4 -5 0 -10 -5 -10 -11z"/><default:path d="M800 1321 c0 -6 -8 -11 -17 -12 -11 0 -13 -3 -5 -6 6 -2 12 -11 12 -19 0 -14 19 -20 21 -6 0 4 2 15 4 24 2 10 -1 20 -6 24 -5 3 -9 0 -9 -5z"/><default:path d="M680 1305 c0 -9 6 -12 15 -9 8 4 12 10 9 15 -8 14 -24 10 -24 -6z"/><default:path d="M2670 1310 c0 -5 5 -10 11 -10 5 0 7 5 4 10 -3 6 -8 10 -11 10 -2 0 -4 -4 -4 -10z"/><default:path d="M830 1290 c0 -17 2 -19 14 -8 14 13 12 28 -5 28 -5 0 -9 -9 -9 -20z"/><default:path d="M2497 1280 c3 -11 7 -20 9 -20 2 0 4 9 4 20 0 11 -4 20 -9 20 -5 0 -7 -9 -4 -20z"/><default:path d="M3205 1270 c4 -6 11 -8 16 -5 14 9 11 15 -7 15 -8 0 -12 -5 -9 -10z"/><default:path d="M4922 1260 c-25 -24 -25 -25 -12 -49 12 -23 70 -36 82 -19 13 22 9 54 -10 71 -24 22 -34 21 -60 -3z m52 -16 c7 -19 -1 -34 -18 -34 -14 0 -28 35 -18 44 11 11 30 6 36 -10z"/><default:path d="M5553 1265 c-11 -8 -23 -23 -26 -34 -7 -27 19 -61 48 -61 52 0 74 65 33 94 -27 20 -29 20 -55 1z m52 -40 c0 -13 -8 -21 -23 -23 -26 -4 -42 25 -21 39 22 14 44 6 44 -16z"/><default:path d="M4185 1249 c-9 -28 -2 -33 13 -9 6 11 8 21 3 25 -5 3 -13 -4 -16 -16z"/><default:path d="M5660 1250 c-8 -16 -7 -28 7 -53 10 -17 18 -33 19 -35 0 -1 15 3 32 9 40 14 45 43 6 33 -17 -4 -29 -2 -35 7 -11 18 8 39 37 39 13 0 24 5 24 10 0 6 -18 10 -40 10 -29 0 -42 -5 -50 -20z"/><default:path d="M1590 1250 c0 -5 7 -7 15 -4 8 4 15 8 15 10 0 2 -7 4 -15 4 -8 0 -15 -4 -15 -10z"/><default:path d="M3812 1233 c2 -17 9 -28 18 -28 9 0 16 11 18 28 3 22 -1 27 -18 27 -17 0 -21 -5 -18 -27z"/><default:path d="M1649 1233 c0 -5 -2 -16 -4 -26 -4 -23 31 -43 39 -21 7 17 -10 54 -24 54 -6 0 -10 -3 -11 -7z"/><default:path d="M4115 1229 c-4 -6 -5 -12 -2 -15 2 -3 7 2 10 11 7 17 1 20 -8 4z"/><default:path d="M716 1214 c-27 -19 -13 -30 14 -11 12 8 18 17 13 20 -4 3 -17 -1 -27 -9z"/><default:path d="M796 1214 c-8 -21 -8 -24 3 -24 12 0 22 28 12 35 -5 3 -12 -2 -15 -11z"/><default:path d="M3128 1219 c-25 -14 -22 -38 5 -43 12 -3 34 -7 50 -11 15 -3 27 -12 27 -20 0 -8 7 -15 15 -15 13 0 20 -18 16 -42 0 -4 6 -5 14 -2 9 4 15 18 14 33 l-1 26 -8 -25 -8 -25 -1 28 c-1 15 4 27 9 27 6 0 10 4 10 8 0 5 -14 6 -32 4 -27 -4 -30 -2 -23 14 16 41 11 49 -30 51 -22 2 -48 -2 -57 -8z m76 -34 c-3 -6 -20 -9 -40 -7 -25 3 -32 7 -23 13 19 12 68 7 63 -6z"/><default:path d="M1536 1202 c5 -15 42 -21 88 -13 24 4 -19 28 -53 29 -33 2 -38 -1 -35 -16z"/><default:path d="M4911 974 c-1 -151 1 -195 11 -192 8 3 11 22 9 56 -2 42 1 52 13 52 9 0 16 5 16 11 0 6 7 4 15 -5 9 -9 15 -33 15 -60 0 -25 5 -46 10 -46 6 0 10 68 10 184 0 182 0 184 -22 190 -13 3 -35 6 -49 6 l-26 0 -2 -196z m77 128 c3 -42 2 -43 -25 -40 -25 3 -28 7 -31 46 -3 42 -2 43 25 40 25 -3 28 -7 31 -46z m2 -92 c0 -26 -3 -29 -29 -27 -23 2 -28 7 -29 30 -1 23 3 27 29 27 26 0 29 -4 29 -30z m0 -64 c0 -18 -7 -25 -26 -29 -16 -3 -28 0 -31 9 -9 24 5 44 32 44 20 0 25 -5 25 -24z"/><default:path d="M4320 1151 c0 -5 5 -11 10 -13 7 -2 13 -71 17 -181 5 -144 9 -177 20 -177 12 0 14 22 12 128 -2 70 0 132 4 139 4 6 0 10 -11 9 -14 -1 -17 7 -16 40 0 30 -5 45 -18 53 -10 6 -18 7 -18 2z"/><default:path d="M2335 1128 c-16 -5 -65 -9 -109 -8 -81 1 -116 -5 -116 -20 0 -4 53 -5 118 -2 64 3 145 5 180 6 63 0 79 14 31 27 -34 10 -69 9 -104 -3z"/><default:path d="M4321 1114 c0 -11 3 -14 6 -6 3 7 2 16 -1 19 -3 4 -6 -2 -5 -13z"/><default:path d="M1980 1106 c0 -11 15 -14 60 -15 46 0 60 3 60 15 0 11 -14 14 -60 14 -45 0 -60 -4 -60 -14z"/><default:path d="M3169 1099 c-13 -11 -19 -18 -13 -15 7 3 17 -1 24 -9 11 -13 7 -15 -24 -15 -22 0 -35 4 -31 10 3 6 -3 10 -14 10 -10 0 -21 6 -24 13 -3 9 -7 9 -17 0 -18 -17 -5 -43 22 -44 60 -3 111 0 118 8 4 4 10 22 14 38 5 22 4 26 -4 15 -6 -10 -10 -11 -10 -2 0 18 -15 15 -41 -9z m30 -8 c7 -5 12 -14 10 -20 -3 -7 -11 -3 -21 9 -18 21 -13 26 11 11z"/><default:path d="M5549 1103 c-44 -19 -35 -23 36 -16 45 4 65 2 65 -5 0 -13 27 -12 47 1 44 27 -89 45 -148 20z"/><default:path d="M2860 1094 c0 -17 5 -20 33 -17 22 3 28 1 18 -5 -8 -6 -9 -12 -3 -16 5 -3 13 1 16 10 9 23 8 24 -17 24 -13 0 -28 5 -35 12 -9 9 -12 7 -12 -8z"/><default:path d="M3405 1100 c-18 -8 -17 -9 8 -9 16 -1 26 3 22 9 -3 6 -7 10 -8 9 -1 0 -11 -4 -22 -9z"/><default:path d="M2347 1084 c-44 -24 -52 -57 -49 -193 l3 -122 92 3 92 3 3 90 c4 119 -4 164 -34 199 -30 34 -68 41 -107 20z m84 -36 c25 -28 35 -77 34 -173 0 -61 -3 -80 -14 -80 -11 0 -13 21 -12 100 2 103 -4 139 -21 129 -5 -3 -8 -56 -7 -117 l1 -111 -46 -2 -46 -1 0 112 c0 98 3 116 21 139 25 32 65 34 90 4z"/><default:path d="M1720 1005 l0 -85 -31 0 c-21 0 -38 9 -56 30 -36 43 -103 38 -103 -7 0 -11 7 -10 31 3 31 16 32 15 55 -13 18 -21 23 -41 24 -80 0 -38 4 -53 14 -53 10 0 12 12 8 49 l-4 48 31 -1 c30 -1 31 -2 31 -48 0 -37 4 -48 16 -48 12 0 15 11 14 53 -4 139 -1 165 21 172 31 10 40 -5 46 -74 7 -78 23 -79 23 -1 0 48 -4 63 -22 80 -24 22 -43 26 -53 10 -12 -20 -26 -10 -15 11 10 17 19 20 63 17 l52 -3 3 -133 c4 -176 22 -175 22 1 0 90 -4 137 -12 145 -7 7 -42 12 -85 12 l-73 0 0 -85z"/><default:path d="M3736 1076 c7 -17 -11 -22 -21 -6 -3 6 -12 10 -18 10 -7 0 -6 -4 3 -10 9 -6 10 -10 3 -10 -6 0 -15 4 -18 10 -4 6 -16 3 -31 -7 -19 -12 -24 -23 -22 -47 3 -30 4 -31 53 -31 40 0 50 3 53 18 3 17 -1 18 -42 12 -31 -5 -46 -4 -46 4 0 6 10 11 23 12 21 1 21 1 -3 9 -21 7 -19 8 16 9 29 1 44 -4 48 -15 3 -8 11 -12 17 -8 8 5 10 -1 7 -20 -6 -28 9 -35 31 -13 9 7 11 7 8 1 -10 -18 65 -24 81 -7 10 9 10 13 1 13 -8 0 -8 4 1 15 12 14 7 16 -38 13 -29 -2 -52 -6 -52 -10 0 -5 -4 -8 -9 -8 -5 0 -13 17 -18 37 -4 20 -14 38 -21 41 -7 2 -10 -2 -6 -12z m101 -72 c-3 -3 -12 -4 -19 -1 -8 3 -5 6 6 6 11 1 17 -2 13 -5z"/><default:path d="M2251 1064 c0 -11 3 -14 6 -6 3 7 2 16 -1 19 -3 4 -6 -2 -5 -13z"/><default:path d="M2023 1058 c-26 -12 -30 -37 -29 -174 l1 -104 128 -4 128 -4 -2 126 c-2 120 -3 127 -27 149 -30 28 -33 28 -63 4 -22 -18 -24 -27 -28 -140 -2 -95 -6 -121 -17 -121 -11 0 -14 25 -14 124 0 118 -1 126 -22 140 -26 18 -26 18 -55 4z m47 -38 c6 -12 9 -63 8 -121 l-3 -102 -27 -3 -28 -3 0 119 c0 115 3 126 32 129 4 1 12 -8 18 -19z m138 8 c8 -8 12 -50 12 -125 l0 -112 -30 2 -30 2 0 111 c0 102 7 134 30 134 3 0 11 -5 18 -12z"/><default:path d="M2985 1061 c-3 -6 -17 -11 -31 -11 -13 0 -24 -5 -24 -11 0 -6 17 -9 43 -7 28 2 42 8 42 17 0 18 -21 26 -30 12z m25 -5 c0 -3 -4 -8 -10 -11 -5 -3 -10 -1 -10 4 0 6 5 11 10 11 6 0 10 -2 10 -4z"/><default:path d="M3226 1054 c-9 -23 -8 -24 22 -23 15 1 20 3 10 6 -10 2 -15 10 -11 19 3 8 1 14 -5 14 -5 0 -13 -7 -16 -16z"/><default:path d="M411 1042 c-8 -16 -7 -25 7 -42 16 -20 21 -21 41 -11 33 18 26 65 -11 69 -18 2 -30 -3 -37 -16z m43 -11 c3 -5 -1 -11 -9 -14 -9 -4 -12 -1 -8 9 6 16 10 17 17 5z"/><default:path d="M611 1046 c-26 -32 13 -76 53 -60 12 5 16 16 14 38 -2 25 -8 32 -29 34 -14 2 -31 -4 -38 -12z m39 -16 c0 -5 -5 -10 -11 -10 -5 0 -7 5 -4 10 3 6 8 10 11 10 2 0 4 -4 4 -10z"/><default:path d="M797 1054 c-12 -13 -8 -51 8 -64 26 -22 67 3 63 38 -2 22 -9 28 -33 30 -17 2 -34 0 -38 -4z m43 -39 c0 -8 -4 -15 -10 -15 -5 0 -7 7 -4 15 4 8 8 15 10 15 2 0 4 -7 4 -15z"/><default:path d="M976 1042 c-9 -26 2 -50 25 -57 27 -9 51 13 47 44 -2 21 -9 27 -35 29 -24 2 -33 -1 -37 -16z"/><default:path d="M1173 1054 c-23 -10 -15 -54 12 -66 32 -14 57 5 53 41 -2 20 -9 26 -28 28 -14 1 -31 -1 -37 -3z m42 -23 c3 -5 2 -12 -3 -15 -5 -3 -9 1 -9 9 0 17 3 19 12 6z"/><default:path d="M2490 1050 c0 -5 5 -10 11 -10 5 0 7 5 4 10 -3 6 -8 10 -11 10 -2 0 -4 -4 -4 -10z"/><default:path d="M3457 1022 c1 -8 3 -22 3 -33 0 -10 4 -19 9 -19 4 0 8 13 7 29 -1 16 -4 27 -8 25 -3 -2 -8 -1 -11 3 -2 5 -2 2 0 -5z"/><default:path d="M1386 1021 c-4 -5 -2 -12 3 -15 5 -4 12 -2 15 3 4 5 2 12 -3 15 -5 4 -12 2 -15 -3z"/><default:path d="M3905 1002 c4 -34 13 -38 24 -11 9 23 10 23 10 3 1 -19 8 -23 46 -26 44 -3 45 -3 45 28 l0 31 -64 -1 c-60 0 -64 -2 -61 -24z m85 -2 c8 -5 12 -11 10 -14 -3 -2 -14 2 -24 10 -22 15 -10 19 14 4z"/><default:path d="M3340 999 c0 -14 7 -19 30 -19 20 0 30 5 30 15 0 24 15 17 27 -12 l11 -28 1 32 1 33 -50 -1 c-42 -1 -50 -5 -50 -20z"/><default:path d="M4122 995 c-2 -23 2 -25 37 -25 22 0 41 -5 43 -12 3 -7 5 4 6 25 l1 37 -42 0 c-38 0 -43 -3 -45 -25z m55 -11 c-3 -3 -12 -4 -19 -1 -8 3 -5 6 6 6 11 1 17 -2 13 -5z"/><default:path d="M5552 995 c-36 -20 -49 -35 -24 -28 20 5 21 1 24 -88 4 -121 23 -116 24 6 l0 90 32 3 32 3 0 -110 c0 -92 3 -111 15 -111 12 0 15 19 15 110 0 98 2 110 18 110 16 1 16 1 -1 11 -27 16 -109 19 -135 4z"/><default:path d="M3157 983 c-26 -11 -37 -21 -37 -36 0 -20 0 -20 23 1 28 26 50 28 72 6 13 -13 16 -34 14 -92 -1 -51 2 -77 9 -80 9 -3 12 22 12 85 0 119 -20 145 -93 116z"/><default:path d="M4628 993 c-16 -4 -18 -18 -18 -103 0 -55 4 -102 10 -105 6 -4 10 18 10 58 0 50 3 64 15 64 12 0 15 -14 15 -64 0 -40 4 -62 10 -58 6 3 10 32 10 63 0 54 12 63 23 17 3 -11 5 -1 6 23 l1 42 -41 0 c-36 0 -40 2 -37 23 2 14 11 23 26 25 12 2 22 8 22 13 0 9 -21 10 -52 2z"/><default:path d="M2890 979 c0 -5 5 -7 10 -4 6 3 10 8 10 11 0 2 -4 4 -10 4 -5 0 -10 -5 -10 -11z"/><default:path d="M4410 975 c-11 -13 -4 -15 53 -15 67 0 96 13 54 24 -40 11 -94 6 -107 -9z"/><default:path d="M1500 960 c0 -5 5 -10 10 -10 6 0 10 5 10 10 0 6 -4 10 -10 10 -5 0 -10 -4 -10 -10z"/><default:path d="M1370 940 c0 -5 5 -10 10 -10 6 0 10 5 10 10 0 6 -4 10 -10 10 -5 0 -10 -4 -10 -10z"/><default:path d="M3350 940 c0 -5 5 -10 10 -10 6 0 10 5 10 10 0 6 -4 10 -10 10 -5 0 -10 -4 -10 -10z"/><default:path d="M3137 912 c-19 -21 -24 -122 -7 -122 10 0 11 5 15 61 3 41 14 52 46 45 27 -5 29 -4 19 14 -13 25 -52 26 -73 2z"/><default:path d="M4142 917 c-20 -9 -22 -17 -22 -80 0 -59 2 -68 14 -58 10 8 13 23 9 45 -6 37 12 79 30 73 7 -2 14 -28 17 -58 6 -63 24 -72 28 -13 6 76 -25 113 -76 91z"/><default:path d="M1395 910 c3 -5 10 -10 16 -10 5 0 9 5 9 10 0 6 -7 10 -16 10 -8 0 -12 -4 -9 -10z"/><default:path d="M1576 912 c-3 -5 1 -9 9 -9 8 0 12 4 9 9 -3 4 -7 8 -9 8 -2 0 -6 -4 -9 -8z"/><default:path d="M3563 913 c-9 -3 -13 -27 -13 -69 0 -44 4 -64 13 -64 8 0 11 15 8 51 -2 29 2 56 8 62 21 21 12 32 -16 20z"/><default:path d="M3660 911 l-35 -6 0 -60 0 -60 52 -3 52 -3 6 45 c4 25 5 52 2 60 -9 23 -38 33 -77 27z m36 -29 c15 -10 24 -40 18 -57 -4 -9 -19 -15 -40 -15 -31 0 -34 3 -34 28 0 41 28 64 56 44z"/><default:path d="M3813 912 l-33 -3 0 -65 0 -64 38 0 c46 0 82 23 82 53 -1 62 -26 85 -87 79z m45 -31 c8 -5 12 -21 10 -37 -2 -23 -9 -30 -30 -32 -27 -3 -28 -1 -28 37 0 42 16 53 48 32z"/><default:path d="M3960 912 c-24 -3 -25 -5 -22 -68 3 -42 8 -64 15 -61 7 2 10 22 8 50 -2 36 1 49 14 53 23 9 27 1 30 -53 1 -26 7 -49 14 -51 9 -3 11 13 9 58 -3 68 -14 79 -68 72z"/><default:path d="M3370 840 c0 -84 18 -94 22 -13 2 46 7 59 21 61 15 3 17 -5 17 -59 0 -75 17 -70 22 6 3 42 6 50 23 50 17 0 20 -7 20 -52 0 -29 5 -53 10 -53 6 0 10 27 10 63 l0 62 -72 3 -73 3 0 -71z"/><default:path d="M1814 857 c-3 -16 -4 -31 0 -34 3 -3 1 -12 -5 -20 -9 -9 -8 -13 0 -13 6 0 11 1 11 3 0 1 4 16 9 33 5 17 5 37 1 45 -6 9 -11 5 -16 -14z"/><default:path d="M416 855 c-19 -20 -20 -26 -3 -49 27 -38 95 2 71 42 -15 23 -48 27 -68 7z m29 -26 c11 -16 1 -19 -13 -3 -7 8 -8 14 -3 14 5 0 13 -5 16 -11z"/><default:path d="M612 858 c-18 -18 -14 -45 9 -62 27 -18 47 -11 55 20 11 42 -34 72 -64 42z m45 -25 c5 -14 -25 -25 -32 -13 -4 6 2 10 12 10 15 0 16 2 3 11 -12 9 -12 10 -1 7 8 -3 16 -9 18 -15z"/><default:path d="M800 856 c-20 -25 -8 -61 21 -64 33 -4 53 20 45 53 -7 29 -45 35 -66 11z m35 -35 c-3 -6 -11 -8 -17 -5 -6 4 -5 9 3 15 16 10 23 4 14 -10z"/><default:path d="M982 858 c-29 -29 -3 -72 40 -66 19 2 23 9 23 38 0 30 -4 35 -25 38 -14 2 -31 -3 -38 -10z m48 -24 c0 -2 -7 -4 -15 -4 -8 0 -15 4 -15 10 0 5 7 7 15 4 8 -4 15 -8 15 -10z"/><default:path d="M1164 845 c-8 -31 10 -55 41 -55 35 0 51 62 19 74 -33 13 -54 6 -60 -19z m46 -21 c0 -2 -7 -4 -15 -4 -8 0 -15 4 -15 10 0 5 7 7 15 4 8 -4 15 -8 15 -10z"/><default:path d="M1570 846 c0 -8 5 -18 10 -21 6 -3 10 1 10 9 0 8 -4 18 -10 21 -5 3 -10 -1 -10 -9z"/><default:path d="M4497 804 c-12 -13 -7 -20 13 -20 11 0 19 5 17 10 -4 13 -21 18 -30 10z"/><default:path d="M1528 733 c7 -3 16 -2 19 1 4 3 -2 6 -13 5 -11 0 -14 -3 -6 -6z"/><default:path d="M2120 700 c91 -4 945 -11 1898 -15 1489 -7 1732 -6 1732 6 0 12 -271 14 -1898 15 -1043 1 -1823 -2 -1732 -6z"/><default:path d="M416 671 c-24 -26 -4 -70 31 -71 16 0 43 28 43 45 0 17 -27 45 -44 45 -7 0 -20 -8 -30 -19z m41 -26 c0 -6 -6 -12 -14 -12 -7 0 -13 6 -13 12 0 6 6 12 13 12 8 0 14 -6 14 -12z"/><default:path d="M616 677 c-38 -27 2 -95 42 -71 24 16 28 55 6 71 -10 7 -21 13 -24 13 -3 0 -14 -6 -24 -13z m44 -37 c0 -4 -7 -11 -16 -14 -8 -3 -12 -2 -9 4 3 6 1 10 -4 10 -6 0 -11 4 -11 9 0 5 9 7 20 4 11 -3 20 -9 20 -13z"/><default:path d="M802 678 c-17 -17 -15 -53 3 -68 12 -10 21 -10 40 -2 29 13 33 43 9 66 -19 19 -36 20 -52 4z m38 -30 c0 -4 -4 -8 -9 -8 -6 0 -12 4 -15 8 -3 5 1 9 9 9 8 0 15 -4 15 -9z"/><default:path d="M986 674 c-32 -32 -6 -81 37 -70 34 8 44 41 21 67 -21 23 -37 24 -58 3z m39 -23 c3 -5 1 -12 -5 -16 -5 -3 -10 1 -10 9 0 18 6 21 15 7z"/><default:path d="M1172 678 c-7 -7 -12 -24 -12 -39 0 -32 28 -46 60 -29 35 19 20 80 -20 80 -9 0 -21 -5 -28 -12z m41 -35 c-7 -2 -19 -2 -25 0 -7 3 -2 5 12 5 14 0 19 -2 13 -5z"/><default:path d="M417 483 c-26 -26 12 -80 47 -67 21 8 30 42 16 59 -13 15 -51 20 -63 8z m43 -27 c0 -3 -4 -8 -10 -11 -5 -3 -10 -1 -10 4 0 6 5 11 10 11 6 0 10 -2 10 -4z"/><default:path d="M605 479 c-12 -18 4 -57 26 -64 27 -9 49 11 49 46 0 26 -3 29 -34 29 -19 0 -38 -5 -41 -11z m39 -24 c-4 -8 -8 -15 -10 -15 -2 0 -4 7 -4 15 0 8 4 15 10 15 5 0 7 -7 4 -15z"/><default:path d="M797 484 c-12 -13 -8 -51 8 -64 26 -22 67 3 63 38 -2 22 -9 28 -33 30 -17 2 -34 0 -38 -4z m49 -41 c-7 -7 -26 7 -26 19 0 6 6 6 15 -2 9 -7 13 -15 11 -17z"/><default:path d="M980 475 c-25 -30 14 -74 53 -59 41 15 26 74 -18 74 -12 0 -28 -7 -35 -15z m44 -21 c3 -8 2 -12 -4 -9 -6 3 -10 10 -10 16 0 14 7 11 14 -7z"/><default:path d="M1164 476 c-9 -23 -1 -48 19 -60 25 -16 52 4 52 40 0 25 -4 29 -33 32 -22 2 -34 -2 -38 -12z m38 -13 c-6 -2 -9 -10 -6 -15 4 -7 2 -8 -5 -4 -13 9 -5 26 12 25 9 0 8 -2 -1 -6z"/></default:g></svg>